<svg xmlns="http://www.w3.org/2000/svg" viewBox="0 0 243 126" width="243" height="126" role="img" aria-label="Buttons/Time play button layout wireframe">
  <title>Buttons/Time play button — layout wireframe (slots + tokens)</title>
  <rect width="243" height="126" fill="#ffffff"/>
  <g>
    <rect x="0" y="0" width="243" height="126" fill="none" fill-opacity="0" stroke="#5B6470" stroke-width="1" stroke-opacity="0.5"/>
  </g>
  <g>
    <rect x="0" y="0" width="243" height="126" fill="none" fill-opacity="0" stroke="#2E7D6B" stroke-width="1" stroke-opacity="0.5"/>
  </g>
  <g>
    <rect x="0" y="0" width="243" height="126" fill="#FFFFFF" fill-opacity="1" stroke="#8E6BA8" stroke-width="1.5" stroke-opacity="1"/>
    <text x="3" y="12" font-family="system-ui, sans-serif" font-size="9" fill="#8E6BA8">#FFFFFFFF</text>
  </g>
  <g>
    <rect x="0" y="0" width="243" height="126" fill="#FFFFFF" fill-opacity="1" stroke="#B0813B" stroke-width="1.5" stroke-opacity="1"/>
    <text x="3" y="12" font-family="system-ui, sans-serif" font-size="9" fill="#B0813B">#FFFFFFFF</text>
  </g>
  <g>
    <path d="M49,14 H194 A49,49 0 0 1 243,63 V63 A49,49 0 0 1 194,112 H49 A49,49 0 0 1 0,63 V63 A49,49 0 0 1 49,14 Z" fill="none" fill-opacity="0" stroke="#292B2E" stroke-width="1.5" stroke-opacity="1"/>
    <text x="3" y="26" font-family="system-ui, sans-serif" font-size="9" fill="#292B2E">◻ #FF292B2E</text>
  </g>
  <g>
    <rect x="42" y="35" width="159" height="56" fill="none" fill-opacity="0" stroke="#A85B6B" stroke-width="1" stroke-opacity="0.5"/>
  </g>
  <g>
    <rect x="42" y="35" width="112" height="56" fill="none" fill-opacity="0" stroke="#4F8A4A" stroke-width="1" stroke-opacity="0.5"/>
  </g>
  <g>
    <rect x="154" y="53" width="21" height="21" fill="none" fill-opacity="0" stroke="#4F8A4A" stroke-width="1" stroke-opacity="0.5"/>
  </g>
  <g>
    <rect x="175" y="46" width="26" height="34" fill="none" fill-opacity="0" stroke="#4F8A4A" stroke-width="1" stroke-opacity="0.5"/>
  </g>
</svg>
