<svg xmlns="http://www.w3.org/2000/svg" viewBox="0 0 1050 140" width="1050" height="140" role="img" aria-label="Buttons/Gradient row button layout wireframe">
  <title>Buttons/Gradient row button — layout wireframe (slots + tokens)</title>
  <rect width="1050" height="140" fill="#ffffff"/>
  <g>
    <rect x="0" y="0" width="1050" height="140" fill="none" fill-opacity="0" stroke="#5B6470" stroke-width="1" stroke-opacity="0.5"/>
  </g>
  <g>
    <rect x="0" y="0" width="1050" height="140" fill="none" fill-opacity="0" stroke="#2E7D6B" stroke-width="1" stroke-opacity="0.5"/>
  </g>
  <g>
    <rect x="0" y="0" width="1050" height="140" fill="#FFFFFF" fill-opacity="1" stroke="#8E6BA8" stroke-width="1.5" stroke-opacity="1"/>
    <text x="3" y="12" font-family="system-ui, sans-serif" font-size="9" fill="#8E6BA8">#FFFFFFFF</text>
  </g>
  <g>
    <path d="M70,42 H980 A28,28 0 0 1 1008,70 V70 A28,28 0 0 1 980,98 H70 A28,28 0 0 1 42,70 V70 A28,28 0 0 1 70,42 Z" fill="none" fill-opacity="0" stroke="#B0813B" stroke-width="1.5" stroke-opacity="1"/>
    <text x="45" y="54" font-family="system-ui, sans-serif" font-size="9" fill="#B0813B">pad 16.0dp</text>
  </g>
  <g>
    <rect x="376" y="42" width="299" height="56" fill="none" fill-opacity="0" stroke="#3B72A8" stroke-width="1" stroke-opacity="0.5"/>
  </g>
  <g>
    <rect x="376" y="42" width="299" height="56" fill="none" fill-opacity="0" stroke="#A85B6B" stroke-width="1" stroke-opacity="0.5"/>
  </g>
  <g>
    <rect x="376" y="42" width="299" height="56" fill="none" fill-opacity="0" stroke="#4F8A4A" stroke-width="1" stroke-opacity="0.5"/>
  </g>
</svg>
