<svg xmlns="http://www.w3.org/2000/svg" viewBox="0 0 1050 1157" width="1050" height="1157" role="img" aria-label="Settings/Setting section layout wireframe">
  <title>Settings/Setting section — layout wireframe (slots + tokens)</title>
  <rect width="1050" height="1157" fill="#ffffff"/>
  <g>
    <rect x="0" y="0" width="1050" height="1157" fill="none" fill-opacity="0" stroke="#5B6470" stroke-width="1" stroke-opacity="0.5"/>
  </g>
  <g>
    <rect x="0" y="0" width="1050" height="1157" fill="none" fill-opacity="0" stroke="#2E7D6B" stroke-width="1" stroke-opacity="0.5"/>
  </g>
  <g>
    <rect x="0" y="0" width="1050" height="1157" fill="none" fill-opacity="0" stroke="#8E6BA8" stroke-width="1" stroke-opacity="0.5"/>
  </g>
  <g>
    <rect x="0" y="32" width="1050" height="1090" fill="none" fill-opacity="0" stroke="#B0813B" stroke-width="1" stroke-opacity="0.5"/>
  </g>
  <g>
    <rect x="189" y="64" width="308" height="56" fill="none" fill-opacity="0" stroke="#3B72A8" stroke-width="1" stroke-opacity="0.5"/>
  </g>
  <g>
    <rect x="0" y="184" width="987" height="58" fill="#8AE9FF" fill-opacity="0" stroke="#3B72A8" stroke-width="1.5" stroke-opacity="1"/>
    <text x="3" y="196" font-family="system-ui, sans-serif" font-size="9" fill="#3B72A8">#008AE9FF  pad ·</text>
  </g>
  <g>
    <rect x="189" y="184" width="798" height="58" fill="none" fill-opacity="0" stroke="#A85B6B" stroke-width="1" stroke-opacity="0.5"/>
  </g>
  <g>
    <rect x="189" y="184" width="518" height="58" fill="none" fill-opacity="0" stroke="#4F8A4A" stroke-width="1" stroke-opacity="0.5"/>
  </g>
  <g>
    <rect x="189" y="184" width="518" height="58" fill="none" fill-opacity="0" stroke="#7A7A33" stroke-width="1" stroke-opacity="0.5"/>
  </g>
  <g>
    <rect x="0" y="306" width="987" height="233" fill="#8AE9FF" fill-opacity="0" stroke="#3B72A8" stroke-width="1.5" stroke-opacity="1"/>
    <text x="3" y="318" font-family="system-ui, sans-serif" font-size="9" fill="#3B72A8">#008AE9FF  pad ·</text>
  </g>
  <g>
    <rect x="189" y="306" width="798" height="233" fill="none" fill-opacity="0" stroke="#A85B6B" stroke-width="1" stroke-opacity="0.5"/>
  </g>
  <g>
    <rect x="189" y="306" width="798" height="116" fill="none" fill-opacity="0" stroke="#4F8A4A" stroke-width="1" stroke-opacity="0.5"/>
  </g>
  <g>
    <rect x="189" y="306" width="798" height="116" fill="none" fill-opacity="0" stroke="#7A7A33" stroke-width="1" stroke-opacity="0.5"/>
  </g>
  <g>
    <rect x="189" y="433" width="798" height="106" fill="none" fill-opacity="0" stroke="#4F8A4A" stroke-width="1" stroke-opacity="0.5"/>
  </g>
  <g>
    <rect x="0" y="603" width="987" height="63" fill="#8AE9FF" fill-opacity="0" stroke="#3B72A8" stroke-width="1.5" stroke-opacity="1"/>
    <text x="3" y="615" font-family="system-ui, sans-serif" font-size="9" fill="#3B72A8">#008AE9FF  pad ·</text>
  </g>
  <g>
    <rect x="189" y="606" width="667" height="58" fill="none" fill-opacity="0" stroke="#A85B6B" stroke-width="1" stroke-opacity="0.5"/>
  </g>
  <g>
    <rect x="189" y="606" width="324" height="58" fill="none" fill-opacity="0" stroke="#4F8A4A" stroke-width="1" stroke-opacity="0.5"/>
  </g>
  <g>
    <rect x="189" y="606" width="324" height="58" fill="none" fill-opacity="0" stroke="#7A7A33" stroke-width="1" stroke-opacity="0.5"/>
  </g>
  <g>
    <rect x="893" y="608" width="89" height="53" fill="none" fill-opacity="0" stroke="#A85B6B" stroke-width="1" stroke-opacity="0.5"/>
  </g>
  <g>
    <rect x="893" y="608" width="89" height="53" fill="none" fill-opacity="0" stroke="#4F8A4A" stroke-width="1" stroke-opacity="0.5"/>
  </g>
  <g>
    <path d="M956.5,608 H956.5 A26.5,26.5 0 0 1 983,634.5 V634.5 A26.5,26.5 0 0 1 956.5,661 H956.5 A26.5,26.5 0 0 1 930,634.5 V634.5 A26.5,26.5 0 0 1 956.5,608 Z" fill="#03A9F4" fill-opacity="1" stroke="#4F8A4A" stroke-width="1.5" stroke-opacity="1"/>
    <text x="933" y="620" font-family="system-ui, sans-serif" font-size="9" fill="#4F8A4A">#FF03A9F4</text>
  </g>
  <g>
    <rect x="0" y="730" width="987" height="63" fill="#8AE9FF" fill-opacity="0" stroke="#3B72A8" stroke-width="1.5" stroke-opacity="1"/>
    <text x="3" y="742" font-family="system-ui, sans-serif" font-size="9" fill="#3B72A8">#008AE9FF  pad ·</text>
  </g>
  <g>
    <rect x="189" y="733" width="703" height="58" fill="none" fill-opacity="0" stroke="#A85B6B" stroke-width="1" stroke-opacity="0.5"/>
  </g>
  <g>
    <rect x="189" y="733" width="382" height="58" fill="none" fill-opacity="0" stroke="#4F8A4A" stroke-width="1" stroke-opacity="0.5"/>
  </g>
  <g>
    <rect x="189" y="733" width="382" height="58" fill="none" fill-opacity="0" stroke="#7A7A33" stroke-width="1" stroke-opacity="0.5"/>
  </g>
  <g>
    <rect x="929" y="735" width="53" height="53" fill="none" fill-opacity="0" stroke="#A85B6B" stroke-width="1" stroke-opacity="0.5"/>
  </g>
  <g>
    <rect x="0" y="857" width="987" height="233" fill="#8AE9FF" fill-opacity="0" stroke="#3B72A8" stroke-width="1.5" stroke-opacity="1"/>
    <text x="3" y="869" font-family="system-ui, sans-serif" font-size="9" fill="#3B72A8">#008AE9FF  pad ·</text>
  </g>
  <g>
    <rect x="0" y="942" width="189" height="63" fill="none" fill-opacity="0" stroke="#A85B6B" stroke-width="1" stroke-opacity="0.5"/>
  </g>
  <g>
    <rect x="63" y="942" width="63" height="63" fill="none" fill-opacity="0" stroke="#4F8A4A" stroke-width="1" stroke-opacity="0.5"/>
  </g>
  <g>
    <rect x="189" y="857" width="667" height="233" fill="none" fill-opacity="0" stroke="#A85B6B" stroke-width="1" stroke-opacity="0.5"/>
  </g>
  <g>
    <rect x="189" y="857" width="667" height="116" fill="none" fill-opacity="0" stroke="#4F8A4A" stroke-width="1" stroke-opacity="0.5"/>
  </g>
  <g>
    <rect x="189" y="857" width="667" height="116" fill="none" fill-opacity="0" stroke="#7A7A33" stroke-width="1" stroke-opacity="0.5"/>
  </g>
  <g>
    <rect x="189" y="984" width="667" height="106" fill="none" fill-opacity="0" stroke="#4F8A4A" stroke-width="1" stroke-opacity="0.5"/>
  </g>
  <g>
    <rect x="893" y="947" width="89" height="53" fill="none" fill-opacity="0" stroke="#A85B6B" stroke-width="1" stroke-opacity="0.5"/>
  </g>
  <g>
    <rect x="893" y="947" width="89" height="53" fill="none" fill-opacity="0" stroke="#4F8A4A" stroke-width="1" stroke-opacity="0.5"/>
  </g>
  <g>
    <path d="M919.5,947 H919.5 A26.5,26.5 0 0 1 946,973.5 V973.5 A26.5,26.5 0 0 1 919.5,1000 H919.5 A26.5,26.5 0 0 1 893,973.5 V973.5 A26.5,26.5 0 0 1 919.5,947 Z" fill="#888888" fill-opacity="1" stroke="#4F8A4A" stroke-width="1.5" stroke-opacity="1"/>
    <text x="896" y="959" font-family="system-ui, sans-serif" font-size="9" fill="#4F8A4A">#FF888888</text>
  </g>
  <g>
    <rect x="0" y="1154" width="1050" height="3" fill="#E0E6EA" fill-opacity="1" stroke="#B0813B" stroke-width="1.5" stroke-opacity="1"/>
    <text x="3" y="1166" font-family="system-ui, sans-serif" font-size="9" fill="#B0813B">#FFE0E6EA</text>
  </g>
</svg>
